<?xml version="1.0" encoding="UTF-8"?>
<svg id="Layer_1" data-name="Layer 1" xmlns="http://www.w3.org/2000/svg" viewBox="0 0 1001.89 572.33">
  <defs>
    <style>
      .cls-1 {
        fill: #ef0a0a;
      }

      .cls-2, .cls-3 {
        fill: #11497e;
      }

      .cls-3 {
        fill-rule: evenodd;
      }
    </style>
  </defs>
  <g>
    <path class="cls-1" d="M127.31,459.66c0,18.11-4.11,32.57-12.32,43.39-8.21,10.82-19.69,16.23-34.44,16.23H0v-210.28h67.38c8.71,0,16.31,1.27,22.78,3.79,6.47,2.53,11.68,5.99,15.64,10.39,3.96,4.4,6.9,9.58,8.85,15.55,1.94,5.97,2.92,12.49,2.92,19.57,0,7.69-1.01,14.79-3.02,21.32-2.01,6.52-4.51,11.89-7.49,16.08-2.98,4.2-5.98,7.16-9,8.88,9.52,5.67,16.78,12.82,21.77,21.47,4.99,8.65,7.49,19.85,7.49,33.61ZM78.24,369.54c0-10.11-2.21-16.84-6.64-20.18-4.42-3.34-11.33-5.01-20.72-5.01h-8.85v50.37h9.05c9.59,0,16.51-1.67,20.77-5.01,4.26-3.34,6.39-10.06,6.39-20.18ZM85.08,457.08c0-18-8.65-27.01-25.94-27.01h-17.1v53.86h17.1c17.3,0,25.94-8.95,25.94-26.85Z"/>
    <path class="cls-1" d="M260.15,519.29h-105.89v-210.28h42.03v159.91h63.86v50.37Z"/>
    <path class="cls-1" d="M434.73,519.29h-43.04l-11.36-42.63h-60.54l-11.56,42.63h-43.04l61.64-210.28h46.46l61.44,210.28ZM370.67,440.09l-20.41-76.77-20.62,76.77h41.03Z"/>
    <path class="cls-1" d="M709.16,360.14h-51.08v159.15h-41.93v-159.15h-51.08v-51.13h144.1v51.13Z"/>
    <path class="cls-1" d="M838.78,519.29h-105.09v-210.28h103.38v42.18h-61.34v38.54h58.53v42.33h-58.53v44.91h63.05v42.33Z"/>
    <path class="cls-1" d="M1001.89,519.29h-45.15l-10.96-37.32c-4.02-13.65-7.64-23.64-10.86-29.96-3.22-6.32-6.35-10.37-9.4-12.14-3.05-1.77-6.99-2.66-11.82-2.66h-4.73v82.08h-42.03v-210.28h71.5c11.53,0,20.98,3.54,28.36,10.62,7.37,7.08,12.69,15.68,15.94,25.79,3.25,10.12,4.88,19.72,4.88,28.83,0,10.62-1.36,19.6-4.07,26.93-2.71,7.33-5.58,12.67-8.6,16.01-3.02,3.34-6.4,6.52-10.16,9.56,4.49,3.94,8.2,8.62,11.11,14.03,2.92,5.41,6.89,16.36,11.92,32.85l14.08,45.67ZM944.77,375.46c0-9.71-2.11-16.48-6.33-20.33-4.22-3.84-11.1-5.77-20.62-5.77h-8.85v50.67h9.05c10.26,0,17.28-1.69,21.07-5.08,3.79-3.39,5.68-9.89,5.68-19.5Z"/>
  </g>
  <g>
    <path class="cls-3" d="M422.06,572.33l48.33-152.16-.6-4.18-40.58,9.55-.6-1.79,57.28-144.4-7.76-1.79-38.19,7.16h-7.16l.6-5.37,56.69-117.55,79.96-3.58-53.11,79.36,4.18.6,51.32-20.29,2.98,1.79-76.38,152.76,1.79,1.79,57.28-33.42,2.98.6-139.03,230.92Z"/>
    <path class="cls-2" d="M596.47,135.35h-40.82V56.93l-36.82,45.41h-3.22l-36.91-45.41v78.42h-39.65V0h37.01l41.6,50.78L559.46,0h37.01v135.35Z"/>
    <path class="cls-2" d="M410.84,270.75h-43.85l-10.64-24.02c-3.91-8.79-7.42-15.22-10.55-19.29-3.12-4.07-6.17-6.67-9.13-7.81-2.96-1.14-6.79-1.71-11.47-1.71h-4.59v52.83h-40.82v-135.35h69.43c11.2,0,20.38,2.28,27.54,6.84,7.16,4.56,12.32,10.09,15.48,16.6,3.16,6.51,4.74,12.7,4.74,18.55,0,6.84-1.32,12.61-3.96,17.33-2.64,4.72-5.42,8.15-8.35,10.3s-6.22,4.2-9.86,6.15c4.36,2.54,7.96,5.55,10.79,9.03,2.83,3.48,6.69,10.53,11.57,21.14l13.67,29.39ZM355.38,178.17c0-6.25-2.05-10.61-6.15-13.09-4.1-2.47-10.78-3.71-20.02-3.71h-8.59v32.62h8.79c9.96,0,16.78-1.09,20.46-3.27,3.68-2.18,5.52-6.36,5.52-12.55Z"/>
    <path class="cls-2" d="M762.95,270.75h-41.8l-11.04-27.44h-58.79l-11.23,27.44h-41.8l59.86-135.35h45.12l59.67,135.35ZM700.74,219.77l-19.82-49.41-20.02,49.41h39.84Z"/>
  </g>
</svg>